<svg xmlns="http://www.w3.org/2000/svg" width="16" height="16" viewBox="0 0 16 16">
  <g fill="context-fill" fill-opacity="context-fill-opacity">
    <path d="M8 1.25a.9.9 0 0 1 .9.9v3.1a.9.9 0 1 1-1.8 0v-3.1a.9.9 0 0 1 .9-.9z"/>
    <path d="M5.04 2.72a.9.9 0 0 1 .11 1.27A4.15 4.15 0 1 0 11.9 8a4.12 4.12 0 0 0-1.06-2.8.9.9 0 1 1 1.34-1.2A5.95 5.95 0 1 1 3.8 4a.9.9 0 0 1 1.24-.12z"/>
    <path d="M2.1 4.82a.75.75 0 0 1 1.04.18 6.72 6.72 0 0 0-.6 1.3.75.75 0 1 1-1.42-.48 7.9 7.9 0 0 1 .8-1.76.75.75 0 0 1 .18-.24zM13.9 4.82a.75.75 0 0 1 .18.24 7.9 7.9 0 0 1 .8 1.76.75.75 0 1 1-1.42.48 6.72 6.72 0 0 0-.6-1.3.75.75 0 0 1 1.04-1.18z"/>
    <circle cx="8" cy="12.15" r="1.05"/>
  </g>
</svg>
