<?xml version="1.0" encoding="UTF-8" standalone="no"?>
<svg
  xmlns="http://www.w3.org/2000/svg"
  width="128"
  height="128"
  viewBox="0 0 128 128"
  version="1.1">
  <defs>
    <linearGradient id="bgGradient" x1="20" y1="18" x2="108" y2="110" gradientUnits="userSpaceOnUse">
      <stop offset="0" stop-color="#2e315e"/>
      <stop offset="1" stop-color="#202446"/>
    </linearGradient>
    <linearGradient id="powerGradient" x1="44" y1="24" x2="84" y2="84" gradientUnits="userSpaceOnUse">
      <stop offset="0" stop-color="#b8eeff"/>
      <stop offset="0.5" stop-color="#8fd2ff"/>
      <stop offset="1" stop-color="#8d82ff"/>
    </linearGradient>
    <linearGradient id="ringGradient" x1="28" y1="40" x2="100" y2="88" gradientUnits="userSpaceOnUse">
      <stop offset="0" stop-color="#6a8cff"/>
      <stop offset="1" stop-color="#a084ff"/>
    </linearGradient>
    <linearGradient id="dotGradient" x1="64" y1="79" x2="64" y2="89" gradientUnits="userSpaceOnUse">
      <stop offset="0" stop-color="#a393ff"/>
      <stop offset="1" stop-color="#8676ff"/>
    </linearGradient>
  </defs>

  <rect x="10" y="10" width="108" height="108" rx="28" ry="28" fill="url(#bgGradient)"/>
  <path d="M36 14h56c13.5 0 22 8.5 22 22v2c0-11.5-8.5-20-20-20H34c-11.5 0-20 8.5-20 20v-2c0-13.5 8.5-22 22-22z" fill="#474c88" opacity="0.34"/>
  <path d="M20 88c9.5 10.5 22.5 16 44 16s34.5-5.5 44-16v4c-9.5 10.5-22.5 16-44 16s-34.5-5.5-44-16z" fill="#181b34" opacity="0.55"/>

  <path
    d="M47 42a24 24 0 1 0 34 0"
    fill="none"
    stroke="url(#powerGradient)"
    stroke-width="11"
    stroke-linecap="round"
    stroke-linejoin="round"/>

  <rect x="58" y="24" width="12" height="28" rx="6" ry="6" fill="url(#powerGradient)"/>

  <path
    d="M28 42a43 43 0 0 0 0 44"
    fill="none"
    stroke="url(#ringGradient)"
    stroke-width="6"
    stroke-linecap="round"/>
  <path
    d="M100 42a43 43 0 0 1 0 44"
    fill="none"
    stroke="url(#ringGradient)"
    stroke-width="6"
    stroke-linecap="round"/>

  <circle cx="64" cy="84" r="4.8" fill="url(#dotGradient)"/>
</svg>
